<svg id="Layer_1" data-name="Layer 1" 
  xmlns="http://www.w3.org/2000/svg" viewBox="0 0 100 100">
  <defs>
    <style>.cls-1{fill:#ffffff;fill-rule:evenodd;}</style>
  </defs>
  <path class="cls-1" d="M50,0C22.39,0,0,23,0,51.27,0,73.92,14.33,93.13,34.2,99.91c2.5.47,3.41-1.11,3.41-2.47s0-4.44-.07-8.72c-13.91,3.1-16.84-6.87-16.84-6.87-2.28-5.92-5.55-7.5-5.55-7.5-4.54-3.18.34-3.12.34-3.12,5,.37,7.66,5.29,7.66,5.29,4.46,7.83,11.7,5.57,14.55,4.26a11.08,11.08,0,0,1,3.17-6.86C29.77,72.63,18.1,68.23,18.1,48.59a20.09,20.09,0,0,1,5.15-13.76c-.52-1.3-2.23-6.51.49-13.57,0,0,4.19-1.38,13.75,5.26a46.13,46.13,0,0,1,25,0c9.55-6.64,13.74-5.26,13.74-5.26,2.72,7.06,1,12.27.49,13.57a20,20,0,0,1,5.14,13.76c0,19.69-11.69,24-22.83,25.29,1.8,1.59,3.4,4.71,3.4,9.5,0,6.85-.06,12.38-.06,14.06,0,1.37.9,3,3.44,2.47A51.2,51.2,0,0,0,100,51.27C100,23,77.61,0,50,0Z"/>
</svg>